<svg xmlns="http://www.w3.org/2000/svg" width="1792" height="1008" viewBox="0 0 1792 1008" version="1.1">
<rect x="0" y="0" width="1792" height="1008" fill="#FFFFFF"/>
<style>
  text { font-family: DejaVu Sans Condensed, Arial Narrow, Arial, Helvetica, sans-serif; dominant-baseline: auto; }
  .header { font-weight: 700; }
</style>
<rect x="34" y="50" width="420" height="800" rx="10" ry="10" fill="#FFFFFF" stroke="#082B64" stroke-width="2"/>
<rect x="486" y="50" width="380" height="800" rx="10" ry="10" fill="#FFFFFF" stroke="#087D7B" stroke-width="2"/>
<rect x="1006" y="50" width="390" height="800" rx="10" ry="10" fill="#FFFFFF" stroke="#4A216F" stroke-width="2"/>
<rect x="1415" y="50" width="345" height="800" rx="10" ry="10" fill="#FFFFFF" stroke="#2F7D1E" stroke-width="2"/>
<circle cx="68" cy="100" r="20" fill="#FFFFFF" stroke="#082B64" stroke-width="2"/>
<text x="68" y="108" font-family="DejaVu Sans Condensed, Arial Narrow, Arial, Helvetica, sans-serif" font-size="25" font-weight="700" fill="#082B64" text-anchor="middle" >1</text>
<circle cx="520" cy="100" r="20" fill="#FFFFFF" stroke="#087D7B" stroke-width="2"/>
<text x="520" y="108" font-family="DejaVu Sans Condensed, Arial Narrow, Arial, Helvetica, sans-serif" font-size="25" font-weight="700" fill="#087D7B" text-anchor="middle" >2</text>
<circle cx="1040" cy="100" r="20" fill="#FFFFFF" stroke="#4A216F" stroke-width="2"/>
<text x="1040" y="108" font-family="DejaVu Sans Condensed, Arial Narrow, Arial, Helvetica, sans-serif" font-size="25" font-weight="700" fill="#4A216F" text-anchor="middle" >3</text>
<circle cx="1449" cy="100" r="20" fill="#FFFFFF" stroke="#2F7D1E" stroke-width="2"/>
<text x="1449" y="108" font-family="DejaVu Sans Condensed, Arial Narrow, Arial, Helvetica, sans-serif" font-size="25" font-weight="700" fill="#2F7D1E" text-anchor="middle" >4</text>
<text x="255" y="105" font-family="DejaVu Sans Condensed, Arial Narrow, Arial, Helvetica, sans-serif" font-size="31" font-weight="700" fill="#082B64" text-anchor="middle">
<tspan x="255" dy="0">Frozen calibrated</tspan>
<tspan x="255" dy="41.85">PD</tspan>
</text>
<text x="700" y="105" font-family="DejaVu Sans Condensed, Arial Narrow, Arial, Helvetica, sans-serif" font-size="28" font-weight="700" fill="#087D7B" text-anchor="middle">
<tspan x="700" dy="0">Mondrian conformal</tspan>
<tspan x="700" dy="37.800000000000004">intervals</tspan>
</text>
<text x="1201" y="105" font-family="DejaVu Sans Condensed, Arial Narrow, Arial, Helvetica, sans-serif" font-size="30" font-weight="700" fill="#4A216F" text-anchor="middle">
<tspan x="1201" dy="0">Robust portfolio</tspan>
<tspan x="1201" dy="40.5">optimization</tspan>
</text>
<text x="1610" y="105" font-family="DejaVu Sans Condensed, Arial Narrow, Arial, Helvetica, sans-serif" font-size="27" font-weight="700" fill="#2F7D1E" text-anchor="middle">
<tspan x="1610" dy="0">Promoted auditable</tspan>
<tspan x="1610" dy="36.45">policy</tspan>
</text>
<line x1="454" y1="405" x2="474" y2="405" stroke="#082B64" stroke-width="3" stroke-linecap="butt"/>
<polygon points="474,396 486,405 474,414" fill="#082B64"/>
<line x1="866" y1="405" x2="994" y2="405" stroke="#087D7B" stroke-width="3" stroke-linecap="butt"/>
<polygon points="994,396 1006,405 994,414" fill="#087D7B"/>
<line x1="1396" y1="405" x2="1403" y2="405" stroke="#4A216F" stroke-width="3" stroke-linecap="butt"/>
<polygon points="1403,396 1415,405 1403,414" fill="#4A216F"/>
<text x="936" y="355" font-family="DejaVu Sans Condensed, Arial Narrow, Arial, Helvetica, sans-serif" font-size="18" font-weight="400" fill="#111111" text-anchor="middle" >u_i(α) → robust PD input</text>
<ellipse cx="115.75" cy="314.7" rx="57.75" ry="14.700000000000001" fill="#FFFFFF" stroke="#082B64" stroke-width="2.4"/>
<path d="M58,314.7 L58,448.05 C58,477.45 173.5,477.45 173.5,448.05 L173.5,314.7" fill="#FFFFFF" stroke="#082B64" stroke-width="2.4"/>
<path d="M58,357.75 C58,376.65 173.5,376.65 173.5,357.75" fill="none" stroke="#082B64" stroke-width="2.4"/>
<path d="M58,399.75 C58,418.65 173.5,418.65 173.5,399.75" fill="none" stroke="#082B64" stroke-width="2.4"/>
<circle cx="155.65" cy="361.95" r="4.2" fill="#FFFFFF" stroke="#082B64" stroke-width="2.4"/>
<circle cx="155.65" cy="403.95" r="4.2" fill="#FFFFFF" stroke="#082B64" stroke-width="2.4"/>
<circle cx="155.65" cy="441.75" r="4.2" fill="#FFFFFF" stroke="#082B64" stroke-width="2.4"/>
<line x1="284" y1="250" x2="284" y2="505" stroke="#111111" stroke-width="1.5"/>
<line x1="284" y1="505" x2="409" y2="505" stroke="#111111" stroke-width="1.5"/>
<line x1="284" y1="505" x2="284" y2="513" stroke="#111111" stroke-width="1.2"/>
<text x="284" y="533" font-family="DejaVu Sans Condensed, Arial Narrow, Arial, Helvetica, sans-serif" font-size="16" font-weight="400" fill="#111111" text-anchor="middle" >0.0</text>
<line x1="346.5" y1="505" x2="346.5" y2="513" stroke="#111111" stroke-width="1.2"/>
<text x="346.5" y="533" font-family="DejaVu Sans Condensed, Arial Narrow, Arial, Helvetica, sans-serif" font-size="16" font-weight="400" fill="#111111" text-anchor="middle" >0.5</text>
<line x1="409" y1="505" x2="409" y2="513" stroke="#111111" stroke-width="1.2"/>
<text x="409" y="533" font-family="DejaVu Sans Condensed, Arial Narrow, Arial, Helvetica, sans-serif" font-size="16" font-weight="400" fill="#111111" text-anchor="middle" >1.0</text>
<line x1="276" y1="505" x2="284" y2="505" stroke="#111111" stroke-width="1.2"/>
<text x="270" y="511" font-family="DejaVu Sans Condensed, Arial Narrow, Arial, Helvetica, sans-serif" font-size="16" font-weight="400" fill="#111111" text-anchor="end" >0.0</text>
<line x1="276" y1="377.5" x2="284" y2="377.5" stroke="#111111" stroke-width="1.2"/>
<text x="270" y="383.5" font-family="DejaVu Sans Condensed, Arial Narrow, Arial, Helvetica, sans-serif" font-size="16" font-weight="400" fill="#111111" text-anchor="end" >0.5</text>
<line x1="276" y1="250" x2="284" y2="250" stroke="#111111" stroke-width="1.2"/>
<text x="270" y="256" font-family="DejaVu Sans Condensed, Arial Narrow, Arial, Helvetica, sans-serif" font-size="16" font-weight="400" fill="#111111" text-anchor="end" >1.0</text>
<line x1="284" y1="505" x2="409" y2="250" stroke="#082B64" stroke-width="2" stroke-dasharray="8 7"/>
<path d="M 302.8,454.0 L 312.8,428.5 L 324.0,397.9 L 337.8,372.4 L 354.0,349.5 L 370.2,324.0 L 386.5,285.7" fill="none" stroke="#082B64" stroke-width="3" stroke-linejoin="round" stroke-linecap="round"/>
<circle cx="302.75" cy="454.0" r="4.5" fill="#082B64"/>
<circle cx="312.75" cy="428.5" r="4.5" fill="#082B64"/>
<circle cx="324.0" cy="397.9" r="4.5" fill="#082B64"/>
<circle cx="337.75" cy="372.4" r="4.5" fill="#082B64"/>
<circle cx="354.0" cy="349.45000000000005" r="4.5" fill="#082B64"/>
<circle cx="370.25" cy="323.95000000000005" r="4.5" fill="#082B64"/>
<circle cx="386.5" cy="285.70000000000005" r="4.5" fill="#082B64"/>
<text x="346.5" y="565" font-family="DejaVu Sans Condensed, Arial Narrow, Arial, Helvetica, sans-serif" font-size="18" font-weight="400" fill="#111111" text-anchor="middle" >Predicted PD</text>
<text x="222" y="377.5" transform="rotate(-90 222 377.5)" font-family="DejaVu Sans Condensed, Arial Narrow, Arial, Helvetica, sans-serif" font-size="18" fill="#111111" text-anchor="middle">Observed</text>
<text x="245" y="377.5" transform="rotate(-90 245 377.5)" font-family="DejaVu Sans Condensed, Arial Narrow, Arial, Helvetica, sans-serif" font-size="18" fill="#111111" text-anchor="middle">default rate</text>
<text x="65" y="690" font-family="DejaVu Sans Condensed, Arial Narrow, Arial, Helvetica, sans-serif" font-size="24" font-weight="400" fill="#111111" text-anchor="start" >Lending Club OOT: n = 276,869</text>
<text x="65" y="745" font-family="DejaVu Sans Condensed, Arial Narrow, Arial, Helvetica, sans-serif" font-size="24" font-weight="400" fill="#111111" text-anchor="start" >CatBoost + Venn-Abers</text>
<text x="65" y="800" font-family="DejaVu Sans Condensed, Arial Narrow, Arial, Helvetica, sans-serif" font-size="24" font-weight="400" fill="#111111" text-anchor="start" >AUC 0.712, ECE 0.006</text>
<line x1="545" y1="245" x2="545" y2="520" stroke="#111111" stroke-width="1.4"/>
<line x1="545" y1="520" x2="825" y2="520" stroke="#111111" stroke-width="1.4"/>
<line x1="538" y1="520.0" x2="545" y2="520.0" stroke="#111111" stroke-width="1"/>
<text x="533" y="526.0" font-family="DejaVu Sans Condensed, Arial Narrow, Arial, Helvetica, sans-serif" font-size="16" font-weight="400" fill="#111111" text-anchor="end" >0.0</text>
<line x1="538" y1="428.3333333333333" x2="545" y2="428.3333333333333" stroke="#111111" stroke-width="1"/>
<text x="533" y="434.3333333333333" font-family="DejaVu Sans Condensed, Arial Narrow, Arial, Helvetica, sans-serif" font-size="16" font-weight="400" fill="#111111" text-anchor="end" >0.1</text>
<line x1="538" y1="336.66666666666663" x2="545" y2="336.66666666666663" stroke="#111111" stroke-width="1"/>
<text x="533" y="342.66666666666663" font-family="DejaVu Sans Condensed, Arial Narrow, Arial, Helvetica, sans-serif" font-size="16" font-weight="400" fill="#111111" text-anchor="end" >0.2</text>
<line x1="538" y1="245.0" x2="545" y2="245.0" stroke="#111111" stroke-width="1"/>
<text x="533" y="251.0" font-family="DejaVu Sans Condensed, Arial Narrow, Arial, Helvetica, sans-serif" font-size="16" font-weight="400" fill="#111111" text-anchor="end" >0.3</text>
<line x1="545.0" y1="520" x2="545.0" y2="527" stroke="#111111" stroke-width="1"/>
<text x="545.0" y="548" font-family="DejaVu Sans Condensed, Arial Narrow, Arial, Helvetica, sans-serif" font-size="16" font-weight="400" fill="#111111" text-anchor="middle" >1</text>
<line x1="607.2222222222222" y1="520" x2="607.2222222222222" y2="527" stroke="#111111" stroke-width="1"/>
<text x="607.2222222222222" y="548" font-family="DejaVu Sans Condensed, Arial Narrow, Arial, Helvetica, sans-serif" font-size="16" font-weight="400" fill="#111111" text-anchor="middle" >3</text>
<line x1="669.4444444444445" y1="520" x2="669.4444444444445" y2="527" stroke="#111111" stroke-width="1"/>
<text x="669.4444444444445" y="548" font-family="DejaVu Sans Condensed, Arial Narrow, Arial, Helvetica, sans-serif" font-size="16" font-weight="400" fill="#111111" text-anchor="middle" >5</text>
<line x1="731.6666666666666" y1="520" x2="731.6666666666666" y2="527" stroke="#111111" stroke-width="1"/>
<text x="731.6666666666666" y="548" font-family="DejaVu Sans Condensed, Arial Narrow, Arial, Helvetica, sans-serif" font-size="16" font-weight="400" fill="#111111" text-anchor="middle" >7</text>
<line x1="793.8888888888889" y1="520" x2="793.8888888888889" y2="527" stroke="#111111" stroke-width="1"/>
<text x="793.8888888888889" y="548" font-family="DejaVu Sans Condensed, Arial Narrow, Arial, Helvetica, sans-serif" font-size="16" font-weight="400" fill="#111111" text-anchor="middle" >9</text>
<line x1="825.0" y1="520" x2="825.0" y2="527" stroke="#111111" stroke-width="1"/>
<text x="825.0" y="548" font-family="DejaVu Sans Condensed, Arial Narrow, Arial, Helvetica, sans-serif" font-size="16" font-weight="400" fill="#111111" text-anchor="middle" >10</text>
<polygon points="545.0,465.0 576.1,451.2 607.2,432.9 638.3,414.6 669.4,400.8 700.6,377.9 731.7,345.8 762.8,327.5 793.9,290.8 825.0,267.9 825.0,387.1 793.9,405.4 762.8,428.3 731.7,446.7 700.6,464.1 669.4,477.8 638.3,487.9 607.2,495.2 576.1,503.5 545.0,510.8" fill="#087D7B" opacity="0.18"/>
<path d="M 545.0,487.9 L 576.1,478.8 L 607.2,466.8 L 638.3,457.7 L 669.4,446.7 L 700.6,428.3 L 731.7,402.7 L 762.8,377.9 L 793.9,355.0 L 825.0,336.7" fill="none" stroke="#087D7B" stroke-width="3" stroke-linejoin="round" stroke-linecap="round"/>
<circle cx="545.0" cy="487.9" r="4" fill="#087D7B"/>
<circle cx="576.1" cy="478.8" r="4" fill="#087D7B"/>
<circle cx="607.2" cy="466.8" r="4" fill="#087D7B"/>
<circle cx="638.3" cy="457.7" r="4" fill="#087D7B"/>
<circle cx="669.4" cy="446.7" r="4" fill="#087D7B"/>
<circle cx="700.6" cy="428.3" r="4" fill="#087D7B"/>
<circle cx="731.7" cy="402.7" r="4" fill="#087D7B"/>
<circle cx="762.8" cy="377.9" r="4" fill="#087D7B"/>
<circle cx="793.9" cy="355.0" r="4" fill="#087D7B"/>
<circle cx="825.0" cy="336.7" r="4" fill="#087D7B"/>
<line x1="580" y1="275" x2="612" y2="275" stroke="#087D7B" stroke-width="3" stroke-linecap="round"/>
<circle cx="596" cy="275" r="4" fill="#087D7B"/>
<text x="626" y="281" font-family="DejaVu Sans Condensed, Arial Narrow, Arial, Helvetica, sans-serif" font-size="16" font-weight="400" fill="#111111" text-anchor="start" >point PD</text>
<rect x="580" y="299" width="32" height="22" fill="#087D7B" opacity="0.18"/>
<text x="626" y="317" font-family="DejaVu Sans Condensed, Arial Narrow, Arial, Helvetica, sans-serif" font-size="16" font-weight="400" fill="#111111" text-anchor="start" >90% band</text>
<text x="498" y="382.5" transform="rotate(-90 498 382.5)" font-family="DejaVu Sans Condensed, Arial Narrow, Arial, Helvetica, sans-serif" font-size="18" fill="#111111" text-anchor="middle">PD</text>
<text x="685.0" y="580" font-family="DejaVu Sans Condensed, Arial Narrow, Arial, Helvetica, sans-serif" font-size="18" font-weight="400" fill="#111111" text-anchor="middle" >Score decile</text>
<text x="525" y="690" font-family="DejaVu Sans Condensed, Arial Narrow, Arial, Helvetica, sans-serif" font-size="24" font-weight="400" fill="#111111" text-anchor="start" >score-decile partition</text>
<text x="525" y="745" font-family="DejaVu Sans Condensed, Arial Narrow, Arial, Helvetica, sans-serif" font-size="24" font-weight="400" fill="#111111" text-anchor="start" >90% coverage: 0.9297</text>
<text x="525" y="800" font-family="DejaVu Sans Condensed, Arial Narrow, Arial, Helvetica, sans-serif" font-size="24" font-weight="400" fill="#111111" text-anchor="start" >min-group coverage: 0.9190</text>
<path d="M1048,215 H1221 L1263,257 V595 H1048 Z" fill="#FFFFFF" stroke="#4A216F" stroke-width="2.5"/>
<path d="M1221,215 V257 H1263" fill="none" stroke="#4A216F" stroke-width="2.5"/>
<text x="1072" y="310" font-family="DejaVu Sans Condensed, Arial Narrow, Arial, Helvetica, sans-serif" font-size="25" font-weight="400" fill="#111111" text-anchor="start" >max Σ_i x_i r_i</text>
<text x="1072" y="375" font-family="DejaVu Sans Condensed, Arial Narrow, Arial, Helvetica, sans-serif" font-size="25" font-weight="400" fill="#111111" text-anchor="start" >s.t.</text>
<text x="1096" y="440" font-family="DejaVu Sans Condensed, Arial Narrow, Arial, Helvetica, sans-serif" font-size="24" font-weight="400" fill="#111111" text-anchor="start" >budget</text>
<text x="1084" y="498" font-family="DejaVu Sans Condensed, Arial Narrow, Arial, Helvetica, sans-serif" font-size="24" font-weight="400" fill="#111111" text-anchor="start" >robust PD cap</text>
<text x="1084" y="560" font-family="DejaVu Sans Condensed, Arial Narrow, Arial, Helvetica, sans-serif" font-size="24" font-weight="400" fill="#111111" text-anchor="start" >x_i ≥ 0</text>
<path d="M1292,318 L1310,300 L1326,307 L1354,273" fill="none" stroke="#4A216F" stroke-width="3"/>
<path d="M1348,273 L1358,267 L1354,280" fill="none" stroke="#4A216F" stroke-width="3"/>
<rect x="1298" y="315" width="8" height="20" fill="none" stroke="#4A216F" stroke-width="2.5"/>
<rect x="1316" y="303" width="8" height="32" fill="none" stroke="#4A216F" stroke-width="2.5"/>
<rect x="1334" y="290" width="8" height="45" fill="none" stroke="#4A216F" stroke-width="2.5"/>
<rect x="1352" y="277" width="8" height="58" fill="none" stroke="#4A216F" stroke-width="2.5"/>
<path d="M1327,370 C1344,382 1362,380 1374,374 V412 C1370,445 1349,456 1335,464 C1319,453 1302,442 1302,412 V374 C1310,380 1323,380 1327,370 Z" fill="#FFFFFF" stroke="#4A216F" stroke-width="2.5"/>
<text x="1337" y="430" font-family="DejaVu Sans Condensed, Arial Narrow, Arial, Helvetica, sans-serif" font-size="44" font-weight="700" fill="#4A216F" text-anchor="middle" >$</text>
<circle cx="1337" cy="550" r="45" fill="#FFFFFF" stroke="#4A216F" stroke-width="2.5"/>
<path d="M1337,550 L1337,505 A45,45 0 0 1 1382,550 Z" fill="none" stroke="#4A216F" stroke-width="2.5"/>
<line x1="1337" y1="550" x2="1382" y2="550" stroke="#4A216F" stroke-width="2.5"/>
<line x1="1325" y1="562" x2="1365" y2="574" stroke="#4A216F" stroke-width="2"/>
<line x1="1325" y1="571" x2="1365" y2="583" stroke="#4A216F" stroke-width="2"/>
<line x1="1325" y1="580" x2="1365" y2="592" stroke="#4A216F" stroke-width="2"/>
<line x1="1325" y1="589" x2="1365" y2="601" stroke="#4A216F" stroke-width="2"/>
<text x="1030" y="690" font-family="DejaVu Sans Condensed, Arial Narrow, Arial, Helvetica, sans-serif" font-size="24" font-weight="400" fill="#111111" text-anchor="start" >$1M budget</text>
<text x="1030" y="745" font-family="DejaVu Sans Condensed, Arial Narrow, Arial, Helvetica, sans-serif" font-size="24" font-weight="400" fill="#111111" text-anchor="start" >point PD + conformal upper risk</text>
<text x="1030" y="800" font-family="DejaVu Sans Condensed, Arial Narrow, Arial, Helvetica, sans-serif" font-size="24" font-weight="400" fill="#111111" text-anchor="start" >τ = 0.175, γ = 0.45</text>
<path d="M1488,215 H1636 L1678,257 V585 H1488 Z" fill="#FFFFFF" stroke="#0B1B0B" stroke-width="2.5"/>
<path d="M1636,215 V257 H1678" fill="none" stroke="#0B1B0B" stroke-width="2.5"/>
<circle cx="1554" cy="307" r="39" fill="#B8D7A8" stroke="#0B1B0B" stroke-width="2"/>
<path d="M1554,307 L1554,268 A39,39 0 0 1 1588,289 Z" fill="#2F7D1E" stroke="#0B1B0B" stroke-width="2"/>
<path d="M1554,307 L1588,289 A39,39 0 0 1 1593,307 Z" fill="#FFFFFF" stroke="#0B1B0B" stroke-width="2"/>
<path d="M1554,307 L1593,307 A39,39 0 0 1 1566,344 Z" fill="#FFFFFF" stroke="#0B1B0B" stroke-width="2"/>
<path d="M1513,390 L1523,402 L1540,378" fill="none" stroke="#2F7D1E" stroke-width="4" stroke-linecap="round" stroke-linejoin="round"/>
<line x1="1558" y1="390" x2="1638" y2="390" stroke="#0B1B0B" stroke-width="3" stroke-linecap="round"/>
<path d="M1513,432 L1523,444 L1540,420" fill="none" stroke="#2F7D1E" stroke-width="4" stroke-linecap="round" stroke-linejoin="round"/>
<line x1="1558" y1="432" x2="1638" y2="432" stroke="#0B1B0B" stroke-width="3" stroke-linecap="round"/>
<path d="M1513,474 L1523,486 L1540,462" fill="none" stroke="#2F7D1E" stroke-width="4" stroke-linecap="round" stroke-linejoin="round"/>
<line x1="1558" y1="474" x2="1638" y2="474" stroke="#0B1B0B" stroke-width="3" stroke-linecap="round"/>
<circle cx="1674" cy="475" r="58" fill="#FFFFFF" stroke="#2F7D1E" stroke-width="4"/>
<path d="M1649,473 L1669,497 L1708,443" fill="none" stroke="#2F7D1E" stroke-width="7" stroke-linecap="round" stroke-linejoin="round"/>
<text x="1448" y="665" font-family="DejaVu Sans Condensed, Arial Narrow, Arial, Helvetica, sans-serif" font-size="23" font-weight="400" fill="#111111" text-anchor="start" >robust return: $170.5K</text>
<text x="1448" y="720" font-family="DejaVu Sans Condensed, Arial Narrow, Arial, Helvetica, sans-serif" font-size="23" font-weight="400" fill="#111111" text-anchor="start" >V(α = 0.01) = 0.028875</text>
<text x="1448" y="775" font-family="DejaVu Sans Condensed, Arial Narrow, Arial, Helvetica, sans-serif" font-size="23" font-weight="400" fill="#111111" text-anchor="start" >Γ_CP = 0.187987</text>
<text x="1448" y="830" font-family="DejaVu Sans Condensed, Arial Narrow, Arial, Helvetica, sans-serif" font-size="23" font-weight="400" fill="#111111" text-anchor="start" >exact pass; 45/45 safe policies</text>
<line x1="34" y1="910" x2="1759" y2="910" stroke="#111111" stroke-width="2"/>
<text x="896.0" y="960" font-family="DejaVu Sans Condensed, Arial Narrow, Arial, Helvetica, sans-serif" font-size="24" font-weight="400" fill="#111111" text-anchor="middle" >Prediction uncertainty becomes an auditable robust portfolio constraint.</text>
</svg>
